<?xml version="1.0" standalone="no"?><!DOCTYPE svg PUBLIC "-//W3C//DTD SVG 1.1//EN" "http://www.w3.org/Graphics/SVG/1.1/DTD/svg11.dtd"><svg t="1764214872553" class="icon" viewBox="0 0 1024 1024" version="1.1" xmlns="http://www.w3.org/2000/svg" p-id="1601" xmlns:xlink="http://www.w3.org/1999/xlink" width="200" height="200"><path d="M745.92 605.12a251.52 251.52 0 0 1-412.16 85.12c-4.8-4.8-8.96-10.24-13.44-15.36 8.32 0 16.96 2.56 25.6 4.8A70.08 70.08 0 1 0 380.16 544a533.44 533.44 0 0 0-232.64 0A70.08 70.08 0 0 0 96 594.24a533.44 533.44 0 0 0 0 232.64 70.08 70.08 0 1 0 136.32-33.92s-2.56-11.84-5.12-29.44c5.12 5.76 10.24 11.84 15.68 17.28a379.2 379.2 0 0 0 640-184.64 566.72 566.72 0 0 1-136.96 8.96zM928 197.12a70.08 70.08 0 1 0-136.32 33.92s2.56 11.84 5.12 29.44c-5.12-5.76-10.24-11.84-15.68-17.28a379.2 379.2 0 0 0-640 184.64 566.4 566.4 0 0 1 136-9.28 251.52 251.52 0 0 1 412.16-85.12c4.8 4.8 8.96 10.24 13.44 15.36-8.32 0-16.96-2.56-25.6-4.8A70.08 70.08 0 1 0 643.84 480a533.44 533.44 0 0 0 232.64 0 70.08 70.08 0 0 0 51.2-51.2A533.44 533.44 0 0 0 928 197.12z" fill="#2c2c2c" p-id="1602"></path></svg>